# xmcd
#
# Track frame offsets: 
#        150
#        22295
#        47261
#        64490
#        85855
#        105319
#        128776
#        152286
#        174720
#        194959
#        211972
#
# Disc length: 3192 seconds
#
# Revision: 0
# Processed by: cddbd v1.5.2PL0 Copyright (c) Steve Scherf et al.
# Submitted via: ExactAudioCopy v1.0b6
#
DISCID=960c760b
DTITLE=李榮浩 - 有理想
DYEAR=2016
DGENRE=Pop
TTITLE0=野生動物
TTITLE1=滿座
TTITLE2=有理想
TTITLE3=爸爸媽媽
TTITLE4=流行歌曲
TTITLE5=優點
TTITLE6=不將就
TTITLE7=心裡面
TTITLE8=女孩
TTITLE9=宛若新生
TTITLE10=大太陽
EXTD=
EXTT0=
EXTT1=
EXTT2=
EXTT3=
EXTT4=
EXTT5=
EXTT6=
EXTT7=
EXTT8=
EXTT9=
EXTT10=
PLAYORDER=
